<svg width="120" height="120" viewBox="0 0 120 120" fill="none" xmlns="http://www.w3.org/2000/svg">
<g clip-path="url(#clip0_8_4)">
<path d="M84 36H90V42H84V36Z" fill="#b31358"/>
<path d="M84 48H90V54H84V48Z" fill="#b31358"/>
<path d="M84 60H90V66H84V60Z" fill="#b31358"/>
<path d="M84 72H90V78H84V72Z" fill="#b31358"/>
<path d="M84 96H90V102H84V96Z" fill="#b31358"/>
<path d="M84 84H90V90H84V84Z" fill="#b31358"/>
<path d="M36 36H42V42H36V36Z" fill="#b31358"/>
<path d="M36 48H42V54H36V48Z" fill="#b31358"/>
<path d="M36 60H42V66H36V60Z" fill="#b31358"/>
<path d="M36 72H42V78H36V72Z" fill="#b31358"/>
<path d="M36 96H42V102H36V96Z" fill="#b31358"/>
<path d="M36 84H42V90H36V84Z" fill="#b31358"/>
<path d="M24 36H30V42H24V36Z" fill="#b31358"/>
<path d="M24 48H30V54H24V48Z" fill="#b31358"/>
<path d="M24 60H30V66H24V60Z" fill="#b31358"/>
<path d="M24 72H30V78H24V72Z" fill="#b31358"/>
<path d="M24 96H30V102H24V96Z" fill="#b31358"/>
<path d="M24 84H30V90H24V84Z" fill="#b31358"/>
<path d="M48 36H54V42H48V36Z" fill="#b31358"/>
<path d="M48 48H54V54H48V48Z" fill="#b31358"/>
<path d="M48 60H54V66H48V60Z" fill="#b31358"/>
<path d="M48 72H54V78H48V72Z" fill="#b31358"/>
<path d="M48 96H54V102H48V96Z" fill="#b31358"/>
<path d="M48 84H54V90H48V84Z" fill="#b31358"/>
<path d="M111 114H108V33.0002C108 28.4222 104.598 23.7062 100.254 22.2542L72 12.8342V2.99419C72 2.04619 71.55 1.15219 70.788 0.588187C70.026 0.0241869 69.042 -0.149813 68.136 0.120187L13.884 16.3982C9.462 17.7242 6 22.3802 6 26.9942V113.994H3C1.344 113.994 0 115.338 0 116.994C0 118.65 1.344 119.994 3 119.994H111C112.656 119.994 114 118.65 114 116.994C114 115.338 112.656 114 111 114ZM98.358 27.9482C100.266 28.5842 102 30.9902 102 33.0002V114H72V19.1642L98.358 27.9482ZM12 27.0002C12 25.0262 13.722 22.7162 15.612 22.1522L66 7.03219V114H12V27.0002Z" fill="#b31358"/>
</g>
<defs>
<clipPath id="clip0_8_4">
<rect width="120" height="120" fill="white"/>
</clipPath>
</defs>
</svg>
