<svg width="120" height="120" viewBox="0 0 120 120" fill="none" xmlns="http://www.w3.org/2000/svg">
<path d="M105.065 44.5181H104.66V33.1606C104.66 28.5701 100.924 24.8353 96.3321 24.8353H23.7382C19.1477 24.8353 15.4132 28.5701 15.4132 33.1606V45.0994H14.9353C10.4529 45.0994 6.80579 48.7463 6.80579 53.2289V68.5149H6.88149V85.9153C6.88149 87.9235 8.51555 89.5573 10.5239 89.5573H13.0772V92.9691C13.0772 94.1796 14.062 95.1645 15.2723 95.1645H17.2411C18.4514 95.1645 19.436 94.1796 19.436 92.9691V89.5573H100.637V92.9691C100.637 94.1796 101.621 95.1645 102.832 95.1645H104.801C106.011 95.1645 106.996 94.1796 106.996 92.9691V89.5573H109.552C111.56 89.5573 113.194 87.9235 113.194 85.9153V68.5339V66.8276V52.6477C113.194 48.165 109.547 44.5181 105.065 44.5181ZM17.1007 33.1606C17.1007 29.5006 20.0782 26.5231 23.738 26.5231H96.3321C99.9938 26.5231 102.973 29.5006 102.973 33.1606V44.5181H101.641C99.3684 44.5181 97.5195 46.3671 97.5195 48.6399V55.3226C89.7333 50.2615 81.1392 46.8886 71.9466 45.2951C64.0345 43.9231 56.0196 43.9388 48.1233 45.3406C38.7342 47.0039 29.9899 50.516 22.1044 55.7813V49.2211C22.1044 46.9486 20.2554 45.0996 17.9829 45.0996H17.1005L17.1007 33.1606ZM97.5197 57.3476V66.8267H72.6476V47.1427C81.6024 48.8309 89.963 52.2598 97.5197 57.3476ZM48.06 47.0705C48.1798 47.0487 48.2981 47.0234 48.4179 47.0023C56.1206 45.6342 63.9403 45.6192 71.6583 46.958C71.8606 46.9929 72.0602 47.0339 72.2616 47.0705H70.9601V66.8267H49.1142V47.0705H48.06ZM47.4267 47.1917V66.8267H22.1046V57.8234C29.7612 52.5244 38.2732 48.952 47.4267 47.1917ZM8.49352 53.2289C8.49352 49.677 11.3831 46.7871 14.9353 46.7871H17.9831C19.3256 46.7871 20.4173 47.8791 20.4173 49.2211V66.8276H8.49352V53.2289ZM17.7488 92.9691C17.7488 93.2492 17.5212 93.4767 17.2413 93.4767H15.2726C14.9925 93.4767 14.7649 93.2492 14.7649 92.9691V89.7082H17.7488V92.9691ZM105.309 92.9691C105.309 93.2492 105.081 93.4767 104.801 93.4767H102.832C102.552 93.4767 102.324 93.2492 102.324 92.9691V89.7082H105.309V92.9691ZM111.507 85.9153C111.507 86.9932 110.63 87.87 109.553 87.87H10.5241C9.44625 87.87 8.56922 86.9932 8.56922 85.9153V68.5149H22.1046H23.7656H96.3108H97.5197V68.5339H111.507V85.9153ZM111.507 66.8276H99.207V48.6399C99.207 47.2976 100.299 46.2056 101.641 46.2056H105.065C108.617 46.2056 111.506 49.0955 111.506 52.6474V66.8276H111.507Z" fill="#b31358"/>
</svg>
