<svg width="165" height="108" viewBox="0 0 165 108" fill="none" xmlns="http://www.w3.org/2000/svg">
<path d="M62.3679 66.4851H103.968" stroke="#ED0000" stroke-width="4"/>
<path d="M62.3678 3.17627H103.968" stroke="#ED0000" stroke-width="4"/>
<path d="M62.3679 32.9058H86.7504" stroke="#ED0000" stroke-width="4"/>
<path d="M132.467 41.9423H147.867V50.9253L144.659 57.4487L138.617 63.4908L132.681 66.5387H120.062L114.02 63.4908L108.138 57.4487L104.716 51.0857L101.722 41.9423V26.4359L104.716 17.239L107.818 11.09L113.913 4.99434L119.688 2H132.735L138.617 4.99434L144.712 11.09L147.867 17.239" stroke="white" stroke-width="4"/>
<path d="M11.678 67.2337V3.17632H12.1057L54.2938 66.4852H54.7216V2.42773" stroke="white" stroke-width="4"/>
<path d="M6.7152 82.7273V90H5.38707L2.22301 85.4226H2.16974V90H0.632102V82.7273H1.98153L5.12074 87.3011H5.18466V82.7273H6.7152ZM9.23917 90H7.59144L10.1021 82.7273H12.0836L14.5907 90H12.943L11.1213 84.3892H11.0645L9.23917 90ZM9.13619 87.1413H13.0282V88.3416H9.13619V87.1413ZM15.4661 90V82.7273H20.2814V83.995H17.0037V85.728H19.9618V86.9957H17.0037V90H15.4661ZM21.0387 83.995V82.7273H27.0117V83.995H24.7852V90H23.2653V83.995H21.0387ZM28.3603 90H26.7125L29.2232 82.7273H31.2047L33.7118 90H32.0641L30.2424 84.3892H30.1855L28.3603 90ZM28.2573 87.1413H32.1493V88.3416H28.2573V87.1413ZM34.5872 90V82.7273H36.1248V88.7322H39.2427V90H34.5872ZM40.261 90V82.7273H45.1616V83.995H41.7987V85.728H44.9094V86.9957H41.7987V88.7322H45.1758V90H40.261ZM46.3841 82.7273H48.2804L50.2832 87.6136H50.3684L52.3713 82.7273H54.2676V90H52.7761V85.2663H52.7157L50.8336 89.9645H49.818L47.9359 85.2486H47.8755V90H46.3841V82.7273ZM132.798 85.0781C132.749 84.9053 132.679 84.7526 132.589 84.62C132.499 84.4851 132.389 84.3714 132.259 84.2791C132.131 84.1844 131.984 84.1122 131.818 84.0625C131.655 84.0128 131.474 83.9879 131.275 83.9879C130.903 83.9879 130.576 84.0803 130.295 84.2649C130.015 84.4496 129.798 84.7183 129.641 85.071C129.485 85.4214 129.407 85.8499 129.407 86.3565C129.407 86.8632 129.484 87.294 129.638 87.6491C129.792 88.0043 130.009 88.2753 130.291 88.4624C130.573 88.647 130.906 88.7393 131.289 88.7393C131.637 88.7393 131.934 88.6778 132.18 88.5547C132.429 88.4292 132.618 88.2528 132.749 88.0256C132.881 87.7983 132.947 87.5296 132.947 87.2195L133.26 87.2656H131.385V86.108H134.428V87.0241C134.428 87.6634 134.293 88.2126 134.023 88.6719C133.754 89.1288 133.382 89.4815 132.908 89.7301C132.435 89.9763 131.893 90.0994 131.282 90.0994C130.6 90.0994 130.001 89.9491 129.485 89.6484C128.969 89.3454 128.567 88.9157 128.278 88.3594C127.991 87.8007 127.848 87.1378 127.848 86.3707C127.848 85.7812 127.933 85.2557 128.104 84.794C128.277 84.33 128.518 83.937 128.828 83.6151C129.138 83.2931 129.499 83.0481 129.911 82.88C130.323 82.7119 130.769 82.6278 131.25 82.6278C131.662 82.6278 132.045 82.6882 132.401 82.8089C132.756 82.9273 133.071 83.0954 133.345 83.3132C133.622 83.531 133.848 83.7902 134.023 84.0909C134.199 84.3892 134.311 84.7183 134.361 85.0781H132.798ZM135.583 90V82.7273H138.453C139.002 82.7273 139.471 82.8255 139.859 83.022C140.249 83.2161 140.547 83.492 140.75 83.8494C140.956 84.2045 141.059 84.6224 141.059 85.103C141.059 85.5859 140.955 86.0014 140.747 86.3494C140.538 86.6951 140.236 86.9602 139.841 87.1449C139.448 87.3295 138.972 87.4219 138.414 87.4219H136.492V86.1861H138.165C138.459 86.1861 138.702 86.1458 138.896 86.0653C139.091 85.9848 139.235 85.8641 139.33 85.7031C139.427 85.5421 139.475 85.3421 139.475 85.103C139.475 84.8615 139.427 84.6579 139.33 84.4922C139.235 84.3265 139.089 84.201 138.893 84.1158C138.699 84.0282 138.454 83.9844 138.158 83.9844H137.121V90H135.583ZM139.511 86.6903L141.318 90H139.621L137.852 86.6903H139.511ZM148.829 86.3636C148.829 87.1567 148.679 87.8314 148.378 88.3878C148.08 88.9441 147.673 89.3691 147.156 89.6626C146.643 89.9538 146.065 90.0994 145.423 90.0994C144.777 90.0994 144.197 89.9527 143.683 89.6591C143.17 89.3655 142.764 88.9406 142.465 88.3842C142.167 87.8279 142.018 87.1544 142.018 86.3636C142.018 85.5705 142.167 84.8958 142.465 84.3395C142.764 83.7831 143.17 83.3594 143.683 83.0682C144.197 82.7746 144.777 82.6278 145.423 82.6278C146.065 82.6278 146.643 82.7746 147.156 83.0682C147.673 83.3594 148.08 83.7831 148.378 84.3395C148.679 84.8958 148.829 85.5705 148.829 86.3636ZM147.27 86.3636C147.27 85.8499 147.193 85.4167 147.039 85.0639C146.888 84.7112 146.673 84.4437 146.396 84.2614C146.119 84.0791 145.795 83.9879 145.423 83.9879C145.052 83.9879 144.727 84.0791 144.45 84.2614C144.173 84.4437 143.958 84.7112 143.804 85.0639C143.653 85.4167 143.577 85.8499 143.577 86.3636C143.577 86.8774 143.653 87.3106 143.804 87.6634C143.958 88.0161 144.173 88.2836 144.45 88.4659C144.727 88.6482 145.052 88.7393 145.423 88.7393C145.795 88.7393 146.119 88.6482 146.396 88.4659C146.673 88.2836 146.888 88.0161 147.039 87.6634C147.193 87.3106 147.27 86.8774 147.27 86.3636ZM154.46 82.7273H155.998V87.4503C155.998 87.9806 155.871 88.4446 155.618 88.8423C155.367 89.2401 155.015 89.5502 154.563 89.7727C154.111 89.9929 153.584 90.103 152.983 90.103C152.379 90.103 151.851 89.9929 151.399 89.7727C150.947 89.5502 150.595 89.2401 150.344 88.8423C150.094 88.4446 149.968 87.9806 149.968 87.4503V82.7273H151.506V87.3189C151.506 87.5959 151.566 87.8421 151.687 88.0575C151.81 88.273 151.983 88.4422 152.205 88.5653C152.428 88.6884 152.687 88.75 152.983 88.75C153.281 88.75 153.54 88.6884 153.761 88.5653C153.983 88.4422 154.155 88.273 154.276 88.0575C154.399 87.8421 154.46 87.5959 154.46 87.3189V82.7273ZM157.263 90V82.7273H160.132C160.684 82.7273 161.154 82.8326 161.542 83.0433C161.93 83.2517 162.226 83.5417 162.43 83.9134C162.636 84.2827 162.739 84.7088 162.739 85.1918C162.739 85.6747 162.635 86.1009 162.426 86.4702C162.218 86.8395 161.916 87.1271 161.521 87.3331C161.128 87.5391 160.652 87.642 160.093 87.642H158.264V86.4098H159.845C160.141 86.4098 160.384 86.3589 160.576 86.2571C160.77 86.1529 160.915 86.0097 161.009 85.8274C161.106 85.6428 161.155 85.4309 161.155 85.1918C161.155 84.9503 161.106 84.7396 161.009 84.5597C160.915 84.3774 160.77 84.2365 160.576 84.1371C160.382 84.0353 160.136 83.9844 159.838 83.9844H158.801V90H157.263Z" fill="white"/>
<path d="M57.8489 90V82.7273H62.7495V83.995H59.3865V85.728H62.4973V86.9957H59.3865V88.7322H62.7637V90H57.8489ZM70.055 82.7273V90H68.7269L65.5629 85.4226H65.5096V90H63.9719V82.7273H65.3214L68.4606 87.3011H68.5245V82.7273H70.055ZM76.1479 85.0781C76.0982 84.9053 76.0284 84.7526 75.9384 84.62C75.8484 84.4851 75.7383 84.3714 75.6081 84.2791C75.4803 84.1844 75.3335 84.1122 75.1678 84.0625C75.0044 84.0128 74.8233 83.9879 74.6245 83.9879C74.2528 83.9879 73.9261 84.0803 73.6444 84.2649C73.365 84.4496 73.1472 84.7183 72.9909 85.071C72.8347 85.4214 72.7566 85.8499 72.7566 86.3565C72.7566 86.8632 72.8335 87.294 72.9874 87.6491C73.1413 88.0043 73.3591 88.2753 73.6408 88.4624C73.9225 88.647 74.2551 88.7393 74.6387 88.7393C74.9867 88.7393 75.2838 88.6778 75.53 88.5547C75.7786 88.4292 75.968 88.2528 76.0982 88.0256C76.2308 87.7983 76.2971 87.5296 76.2971 87.2195L76.6096 87.2656H74.7346V86.108H77.7779V87.0241C77.7779 87.6634 77.6429 88.2126 77.373 88.6719C77.1032 89.1288 76.7315 89.4815 76.258 89.7301C75.7845 89.9763 75.2424 90.0994 74.6316 90.0994C73.9498 90.0994 73.3508 89.9491 72.8347 89.6484C72.3186 89.3454 71.9161 88.9157 71.6273 88.3594C71.3408 87.8007 71.1976 87.1378 71.1976 86.3707C71.1976 85.7812 71.2828 85.2557 71.4533 84.794C71.6261 84.33 71.8676 83.937 72.1777 83.6151C72.4879 83.2931 72.8489 83.0481 73.2608 82.88C73.6728 82.7119 74.119 82.6278 74.5996 82.6278C75.0115 82.6278 75.3951 82.6882 75.7502 82.8089C76.1053 82.9273 76.4202 83.0954 76.6948 83.3132C76.9718 83.531 77.1979 83.7902 77.373 84.0909C77.5482 84.3892 77.6607 84.7183 77.7104 85.0781H76.1479ZM80.4705 82.7273V90H78.9329V82.7273H80.4705ZM87.8187 82.7273V90H86.4906L83.3265 85.4226H83.2733V90H81.7356V82.7273H83.085L86.2243 87.3011H86.2882V82.7273H87.8187ZM89.0891 90V82.7273H93.9897V83.995H90.6268V85.728H93.7376V86.9957H90.6268V88.7322H94.0039V90H89.0891ZM95.2122 90V82.7273H100.113V83.995H96.7498V85.728H99.8606V86.9957H96.7498V88.7322H100.127V90H95.2122ZM101.335 90V82.7273H104.205C104.754 82.7273 105.223 82.8255 105.611 83.022C106.001 83.2161 106.299 83.492 106.502 83.8494C106.708 84.2045 106.811 84.6224 106.811 85.103C106.811 85.5859 106.707 86.0014 106.499 86.3494C106.29 86.6951 105.988 86.9602 105.593 87.1449C105.2 87.3295 104.724 87.4219 104.165 87.4219H102.244V86.1861H103.917C104.21 86.1861 104.454 86.1458 104.648 86.0653C104.843 85.9848 104.987 85.8641 105.082 85.7031C105.179 85.5421 105.227 85.3421 105.227 85.103C105.227 84.8615 105.179 84.6579 105.082 84.4922C104.987 84.3265 104.841 84.201 104.645 84.1158C104.451 84.0282 104.206 83.9844 103.91 83.9844H102.873V90H101.335ZM105.263 86.6903L107.07 90H105.373L103.604 86.6903H105.263ZM109.435 82.7273V90H107.898V82.7273H109.435ZM116.784 82.7273V90H115.455L112.291 85.4226H112.238V90H110.7V82.7273H112.05L115.189 87.3011H115.253V82.7273H116.784ZM122.876 85.0781C122.827 84.9053 122.757 84.7526 122.667 84.62C122.577 84.4851 122.467 84.3714 122.337 84.2791C122.209 84.1844 122.062 84.1122 121.896 84.0625C121.733 84.0128 121.552 83.9879 121.353 83.9879C120.981 83.9879 120.655 84.0803 120.373 84.2649C120.094 84.4496 119.876 84.7183 119.719 85.071C119.563 85.4214 119.485 85.8499 119.485 86.3565C119.485 86.8632 119.562 87.294 119.716 87.6491C119.87 88.0043 120.088 88.2753 120.369 88.4624C120.651 88.647 120.984 88.7393 121.367 88.7393C121.715 88.7393 122.012 88.6778 122.259 88.5547C122.507 88.4292 122.696 88.2528 122.827 88.0256C122.959 87.7983 123.026 87.5296 123.026 87.2195L123.338 87.2656H121.463V86.108H124.506V87.0241C124.506 87.6634 124.371 88.2126 124.102 88.6719C123.832 89.1288 123.46 89.4815 122.987 89.7301C122.513 89.9763 121.971 90.0994 121.36 90.0994C120.678 90.0994 120.079 89.9491 119.563 89.6484C119.047 89.3454 118.645 88.9157 118.356 88.3594C118.069 87.8007 117.926 87.1378 117.926 86.3707C117.926 85.7812 118.011 85.2557 118.182 84.794C118.355 84.33 118.596 83.937 118.906 83.6151C119.216 83.2931 119.577 83.0481 119.989 82.88C120.401 82.7119 120.848 82.6278 121.328 82.6278C121.74 82.6278 122.124 82.6882 122.479 82.8089C122.834 82.9273 123.149 83.0954 123.423 83.3132C123.7 83.531 123.926 83.7902 124.102 84.0909C124.277 84.3892 124.389 84.7183 124.439 85.0781H122.876Z" fill="#ED0000"/>
</svg>
