<svg width="120" height="120" viewBox="0 0 120 120" fill="none" xmlns="http://www.w3.org/2000/svg">
<path d="M60 26.25C52.1498 26.5814 44.7102 29.8485 39.1543 35.4043C33.5984 40.9602 30.3314 48.3998 30 56.25C30.0612 64.2037 33.129 71.8398 38.5875 77.625C40.4654 79.1218 42.0069 80.9974 43.1118 83.1296C44.2166 85.2617 44.86 87.6027 45 90C45 90.9946 45.3951 91.9484 46.0984 92.6517C46.8016 93.3549 47.7554 93.75 48.75 93.75H71.25C72.2446 93.75 73.1984 93.3549 73.9017 92.6517C74.6049 91.9484 75 90.9946 75 90C75.1176 87.6164 75.744 85.2855 76.8371 83.1639C77.9302 81.0424 79.4647 79.1794 81.3375 77.7C84.1516 74.8924 86.3694 71.5451 87.858 67.8591C89.3466 64.1732 90.0751 60.2245 90 56.25C90.0031 52.1809 89.1956 48.1519 87.6246 44.3982C86.0536 40.6445 83.7506 37.2414 80.85 34.3875C78.0948 31.7066 74.8302 29.6052 71.249 28.2075C67.6678 26.8098 63.8428 26.1442 60 26.25ZM76.275 72.3C72.0265 75.9141 69.0657 80.8093 67.8375 86.25H52.1625C50.9454 80.8598 48.0583 75.9911 43.9125 72.3375C39.8504 67.9581 37.5644 62.223 37.5 56.25C37.7655 50.3681 40.2212 44.7981 44.3846 40.6347C48.548 36.4713 54.118 34.0155 60 33.75C62.8531 33.6511 65.6966 34.1318 68.3586 35.1631C71.0205 36.1944 73.4457 37.7548 75.4875 39.75C77.697 41.8942 79.4555 44.4584 80.6598 47.292C81.864 50.1255 82.4897 53.1712 82.5 56.25C82.5663 59.2126 82.0399 62.1586 80.9515 64.9148C79.8632 67.6711 78.235 70.182 76.1625 72.3H76.275Z" fill="#B31358"/>
<path d="M71.25 97.5H48.75C47.7554 97.5 46.8016 97.8951 46.0984 98.5983C45.3951 99.3016 45 100.255 45 101.25C45 102.245 45.3951 103.198 46.0984 103.902C46.8016 104.605 47.7554 105 48.75 105H71.25C72.2446 105 73.1984 104.605 73.9017 103.902C74.6049 103.198 75 102.245 75 101.25C75 100.255 74.6049 99.3016 73.9017 98.5983C73.1984 97.8951 72.2446 97.5 71.25 97.5Z" fill="#B31358"/>
<path d="M67.5 108.75H52.5C51.5054 108.75 50.5516 109.145 49.8484 109.848C49.1451 110.552 48.75 111.505 48.75 112.5C48.75 113.495 49.1451 114.448 49.8484 115.152C50.5516 115.855 51.5054 116.25 52.5 116.25H67.5C68.4946 116.25 69.4484 115.855 70.1517 115.152C70.8549 114.448 71.25 113.495 71.25 112.5C71.25 111.505 70.8549 110.552 70.1517 109.848C69.4484 109.145 68.4946 108.75 67.5 108.75Z" fill="#B31358"/>
<path d="M60 18.75C60.9946 18.75 61.9484 18.3549 62.6517 17.6516C63.3549 16.9484 63.75 15.9946 63.75 15V7.5C63.75 6.50544 63.3549 5.55161 62.6517 4.84835C61.9484 4.14509 60.9946 3.75 60 3.75C59.0054 3.75 58.0516 4.14509 57.3484 4.84835C56.6451 5.55161 56.25 6.50544 56.25 7.5V15C56.25 15.9946 56.6451 16.9484 57.3484 17.6516C58.0516 18.3549 59.0054 18.75 60 18.75Z" fill="#B31358"/>
<path d="M18.75 52.5H11.25C10.2554 52.5 9.30161 52.8951 8.59835 53.5984C7.89509 54.3016 7.5 55.2554 7.5 56.25C7.5 57.2446 7.89509 58.1984 8.59835 58.9016C9.30161 59.6049 10.2554 60 11.25 60H18.75C19.7446 60 20.6984 59.6049 21.4016 58.9016C22.1049 58.1984 22.5 57.2446 22.5 56.25C22.5 55.2554 22.1049 54.3016 21.4016 53.5984C20.6984 52.8951 19.7446 52.5 18.75 52.5Z" fill="#B31358"/>
<path d="M108.75 52.5H101.25C100.255 52.5 99.3016 52.8951 98.5983 53.5984C97.8951 54.3016 97.5 55.2554 97.5 56.25C97.5 57.2446 97.8951 58.1984 98.5983 58.9016C99.3016 59.6049 100.255 60 101.25 60H108.75C109.745 60 110.698 59.6049 111.402 58.9016C112.105 58.1984 112.5 57.2446 112.5 56.25C112.5 55.2554 112.105 54.3016 111.402 53.5984C110.698 52.8951 109.745 52.5 108.75 52.5Z" fill="#B31358"/>
<path d="M97.125 19.125C96.4224 18.4266 95.4719 18.0345 94.4812 18.0345C93.4906 18.0345 92.5401 18.4266 91.8375 19.125L86.5125 24.4125C86.161 24.7611 85.882 25.1759 85.6917 25.6329C85.5013 26.0898 85.4033 26.58 85.4033 27.075C85.4033 27.5701 85.5013 28.0602 85.6917 28.5172C85.882 28.9742 86.161 29.3889 86.5125 29.7375C86.8629 30.0851 87.2785 30.36 87.7354 30.5467C88.1922 30.7333 88.6815 30.8279 89.175 30.825C89.6685 30.8279 90.1578 30.7333 90.6146 30.5467C91.0715 30.36 91.4871 30.0851 91.8375 29.7375L97.125 24.4125C97.8234 23.7099 98.2155 22.7595 98.2155 21.7688C98.2155 20.7781 97.8234 19.8276 97.125 19.125Z" fill="#B31358"/>
<path d="M33.4875 29.7375C33.839 29.3889 34.118 28.9741 34.3083 28.5171C34.4987 28.0602 34.5967 27.57 34.5967 27.075C34.5967 26.5799 34.4987 26.0898 34.3083 25.6328C34.118 25.1758 33.839 24.7611 33.4875 24.4125L28.1625 19.125C27.4451 18.5106 26.5223 18.1896 25.5786 18.2261C24.6348 18.2625 23.7395 18.6538 23.0716 19.3216C22.4038 19.9895 22.0125 20.8847 21.9761 21.8285C21.9396 22.7723 22.2607 23.6951 22.875 24.4125L28.1625 29.7375C28.5129 30.085 28.9285 30.36 29.3854 30.5466C29.8422 30.7332 30.3315 30.8278 30.825 30.825C31.3185 30.8278 31.8078 30.7332 32.2646 30.5466C32.7215 30.36 33.1371 30.085 33.4875 29.7375Z" fill="#B31358"/>
</svg>
