<svg width="118" height="91" viewBox="0 0 118 91" fill="none" xmlns="http://www.w3.org/2000/svg">
<path d="M115.25 80.7499H2.75V88.2499H115.25V80.7499Z" fill="#5F443E"/>
<path d="M107.75 80.7499H2.75V88.2499H107.75V80.7499Z" fill="#7F5B53"/>
<path d="M111.5 80.7499C111.5 78.7608 110.71 76.8532 109.303 75.4466C107.897 74.0401 105.989 73.2499 104 73.2499C103.99 71.7306 103.519 70.2501 102.65 69.0044C101.78 67.7587 100.552 66.8065 99.1292 66.2739C97.7063 65.7413 96.1551 65.6535 94.6812 66.022C93.2072 66.3904 91.8799 67.1979 90.875 68.3374C89.7451 67.0166 88.1857 66.1364 86.4709 65.8518C84.7562 65.5671 82.996 65.8962 81.5 66.7812C80.004 65.8962 78.2438 65.5671 76.5291 65.8518C74.8143 66.1364 73.2549 67.0166 72.125 68.3374C71.1201 67.1979 69.7928 66.3904 68.3188 66.022C66.8449 65.6535 65.2937 65.7413 63.8708 66.2739C62.4479 66.8065 61.2203 67.7587 60.3505 69.0044C59.4807 70.2501 59.0097 71.7306 59 73.2499C58.9903 71.7306 58.5193 70.2501 57.6495 69.0044C56.7797 67.7587 55.5521 66.8065 54.1292 66.2739C52.7063 65.7413 51.1551 65.6535 49.6812 66.022C48.2072 66.3904 46.8799 67.1979 45.875 68.3374C44.7451 67.0166 43.1857 66.1364 41.471 65.8518C39.7562 65.5671 37.996 65.8962 36.5 66.7812C35.004 65.8962 33.2438 65.5671 31.529 65.8518C29.8143 66.1364 28.2549 67.0166 27.125 68.3374C26.1201 67.1979 24.7928 66.3904 23.3188 66.022C21.8449 65.6535 20.2937 65.7413 18.8708 66.2739C17.4479 66.8065 16.2203 67.7587 15.3505 69.0044C14.4807 70.2501 14.0097 71.7306 14 73.2499C12.0109 73.2499 10.1032 74.0401 8.6967 75.4466C7.29018 76.8532 6.5 78.7608 6.5 80.7499" fill="#F0C419"/>
<path d="M49.625 31.9999C49.625 30.5445 49.2861 29.1091 48.6352 27.8073C47.9844 26.5055 47.0393 25.3732 45.875 24.4999C46.8291 23.2262 47.4433 21.7304 47.6596 20.1537C47.8759 18.5769 47.6873 16.9711 47.1114 15.4874C46.5356 14.0037 45.5915 12.691 44.3681 11.6731C43.1448 10.6551 41.6824 9.96529 40.1187 9.66869C39.7071 7.52878 38.5629 5.59909 36.8828 4.21133C35.2027 2.82358 33.0916 2.06445 30.9125 2.06445C28.7333 2.06445 26.6223 2.82358 24.9422 4.21133C23.262 5.59909 22.1178 7.52878 21.7062 9.66869C20.1362 9.9549 18.6652 10.6372 17.4326 11.6508C16.2 12.6645 15.2466 13.9761 14.6627 15.4613C14.0787 16.9465 13.8836 18.5562 14.0957 20.138C14.3079 21.7197 14.9203 23.2211 15.875 24.4999C14.6105 25.454 13.6084 26.713 12.9623 28.1592C12.3161 29.6055 12.0469 31.1919 12.1799 32.7703C12.3128 34.3488 12.8435 35.8678 13.7225 37.1856C14.6015 38.5034 15.8 39.577 17.2062 40.3062C16.0883 42.1705 15.6529 44.3654 15.9747 46.5153C16.2964 48.6652 17.3553 50.6364 18.9701 52.0917C20.5849 53.547 22.6553 54.396 24.8269 54.4932C26.9986 54.5905 29.1365 53.9301 30.875 52.6249C32.6131 53.8921 34.7341 54.523 36.8823 54.4118C39.0304 54.3007 41.0749 53.4542 42.673 52.0144C44.2711 50.5746 45.3254 48.6291 45.6592 46.5041C45.993 44.3792 45.5859 42.2041 44.5062 40.3437C46.0453 39.5595 47.3378 38.3653 48.2411 36.8929C49.1443 35.4206 49.6233 33.7273 49.625 31.9999Z" fill="#396041"/>
<path d="M44 32C44 30.5446 43.6611 29.1091 43.0102 27.8074C42.3594 26.5056 41.4143 25.3733 40.25 24.5C41.2041 23.2262 41.8183 21.7305 42.0346 20.1537C42.2509 18.577 42.0623 16.9711 41.4864 15.4874C40.9106 14.0038 39.9665 12.6911 38.7431 11.6731C37.5198 10.6551 36.0574 9.96535 34.4937 9.66875C34.1788 8.0026 33.4178 6.45306 32.2919 5.18516C31.166 3.91726 29.7172 2.97846 28.1 2.46875C26.4827 2.97846 25.034 3.91726 23.9081 5.18516C22.7822 6.45306 22.0212 8.0026 21.7062 9.66875C20.1362 9.95495 18.6652 10.6372 17.4326 11.6509C16.2 12.6646 15.2466 13.9762 14.6627 15.4614C14.0787 16.9466 13.8836 18.5563 14.0957 20.138C14.3079 21.7198 14.9203 23.2212 15.875 24.5C14.6105 25.4541 13.6084 26.7131 12.9623 28.1593C12.3161 29.6056 12.0469 31.192 12.1799 32.7704C12.3128 34.3489 12.8435 35.8679 13.7225 37.1857C14.6015 38.5035 15.8 39.5771 17.2062 40.3063C16.4626 41.5154 16.0068 42.8793 15.8741 44.2927C15.7414 45.706 15.9354 47.1309 16.4409 48.4574C16.9465 49.7838 17.7502 50.9763 18.79 51.9428C19.8297 52.9093 21.0777 53.6238 22.4375 54.0312C23.4431 53.7133 24.3922 53.2387 25.25 52.625C26.099 53.262 27.05 53.7502 28.0625 54.0688C29.075 53.7502 30.026 53.262 30.875 52.625C31.7188 53.2484 32.6552 53.7356 33.65 54.0688C35.0098 53.6613 36.2578 52.9468 37.2975 51.9803C38.3373 51.0138 39.1409 49.8213 39.6465 48.4949C40.1521 47.1684 40.346 45.7435 40.2133 44.3302C40.0806 42.9168 39.6249 41.5529 38.8812 40.3438C40.4203 39.5595 41.7128 38.3654 42.6161 36.893C43.5193 35.4206 43.9983 33.7273 44 32Z" fill="#4C8056"/>
<path d="M105.875 31.9999C105.875 30.5445 105.536 29.1091 104.885 27.8073C104.234 26.5055 103.289 25.3732 102.125 24.4999C103.079 23.2262 103.693 21.7304 103.91 20.1537C104.126 18.5769 103.937 16.9711 103.361 15.4874C102.786 14.0037 101.842 12.691 100.618 11.6731C99.3948 10.6551 97.9324 9.96529 96.3687 9.66869C95.9571 7.52878 94.8129 5.59909 93.1328 4.21133C91.4527 2.82358 89.3416 2.06445 87.1625 2.06445C84.9833 2.06445 82.8723 2.82358 81.1922 4.21133C79.512 5.59909 78.3678 7.52878 77.9562 9.66869C76.3862 9.9549 74.9152 10.6372 73.6826 11.6508C72.45 12.6645 71.4966 13.9761 70.9127 15.4613C70.3287 16.9465 70.1336 18.5562 70.3457 20.138C70.5579 21.7197 71.1703 23.2211 72.125 24.4999C70.8605 25.454 69.8584 26.713 69.2123 28.1592C68.5661 29.6055 68.2969 31.1919 68.4299 32.7703C68.5628 34.3488 69.0935 35.8678 69.9725 37.1856C70.8515 38.5034 72.05 39.577 73.4562 40.3062C72.3383 42.1705 71.9029 44.3654 72.2247 46.5153C72.5464 48.6652 73.6053 50.6364 75.2201 52.0917C76.8349 53.547 78.9053 54.396 81.0769 54.4932C83.2486 54.5905 85.3865 53.9301 87.125 52.6249C88.8631 53.8921 90.9841 54.523 93.1323 54.4118C95.2804 54.3007 97.3249 53.4542 98.923 52.0144C100.521 50.5746 101.575 48.6291 101.909 46.5041C102.243 44.3792 101.836 42.2041 100.756 40.3437C102.295 39.5595 103.588 38.3653 104.491 36.8929C105.394 35.4206 105.873 33.7273 105.875 31.9999Z" fill="#396041"/>
<path d="M100.25 32C100.25 30.5446 99.9111 29.1091 99.2602 27.8074C98.6094 26.5056 97.6643 25.3733 96.5 24.5C97.4541 23.2262 98.0683 21.7305 98.2846 20.1537C98.5009 18.577 98.3123 16.9711 97.7364 15.4874C97.1606 14.0038 96.2165 12.6911 94.9931 11.6731C93.7698 10.6551 92.3074 9.96535 90.7437 9.66875C90.4288 8.0026 89.6678 6.45306 88.5419 5.18516C87.4159 3.91726 85.9672 2.97846 84.35 2.46875C82.7327 2.97846 81.284 3.91726 80.1581 5.18516C79.0322 6.45306 78.2712 8.0026 77.9562 9.66875C76.3862 9.95495 74.9152 10.6372 73.6826 11.6509C72.45 12.6646 71.4966 13.9762 70.9127 15.4614C70.3287 16.9466 70.1336 18.5563 70.3457 20.138C70.5579 21.7198 71.1703 23.2212 72.125 24.5C70.8605 25.4541 69.8584 26.7131 69.2123 28.1593C68.5661 29.6056 68.2969 31.192 68.4299 32.7704C68.5628 34.3489 69.0935 35.8679 69.9725 37.1857C70.8515 38.5035 72.05 39.5771 73.4562 40.3063C72.7126 41.5154 72.2568 42.8793 72.1241 44.2927C71.9914 45.706 72.1854 47.1309 72.6909 48.4574C73.1965 49.7838 74.0002 50.9763 75.04 51.9428C76.0797 52.9093 77.3277 53.6238 78.6875 54.0312C79.6931 53.7133 80.6422 53.2387 81.5 52.625C82.349 53.262 83.3 53.7502 84.3125 54.0688C85.325 53.7502 86.276 53.262 87.125 52.625C87.9688 53.2484 88.9052 53.7356 89.9 54.0688C91.2598 53.6613 92.5078 52.9468 93.5475 51.9803C94.5873 51.0138 95.3909 49.8213 95.8965 48.4949C96.4021 47.1684 96.596 45.7435 96.4633 44.3302C96.3306 42.9168 95.8749 41.5529 95.1312 40.3438C96.6703 39.5595 97.9628 38.3654 98.8661 36.893C99.7693 35.4206 100.248 33.7273 100.25 32Z" fill="#4C8056"/>
<path d="M77.75 31.9999C77.75 30.5445 77.4111 29.1091 76.7602 27.8073C76.1094 26.5055 75.1643 25.3732 74 24.4999C74.9541 23.2262 75.5683 21.7304 75.7846 20.1537C76.0009 18.5769 75.8123 16.9711 75.2364 15.4874C74.6606 14.0037 73.7165 12.691 72.4931 11.6731C71.2698 10.6551 69.8074 9.96529 68.2437 9.66869C67.8321 7.52878 66.6879 5.59909 65.0078 4.21133C63.3277 2.82358 61.2166 2.06445 59.0375 2.06445C56.8583 2.06445 54.7473 2.82358 53.0672 4.21133C51.387 5.59909 50.2428 7.52878 49.8312 9.66869C48.2612 9.9549 46.7902 10.6372 45.5576 11.6508C44.325 12.6645 43.3716 13.9761 42.7877 15.4613C42.2037 16.9465 42.0086 18.5562 42.2207 20.138C42.4329 21.7197 43.0453 23.2211 44 24.4999C42.7355 25.454 41.7334 26.713 41.0873 28.1592C40.4411 29.6055 40.1719 31.1919 40.3049 32.7703C40.4378 34.3488 40.9685 35.8678 41.8475 37.1856C42.7265 38.5034 43.925 39.577 45.3312 40.3062C44.2133 42.1705 43.7779 44.3654 44.0997 46.5153C44.4214 48.6652 45.4803 50.6364 47.0951 52.0917C48.7099 53.547 50.7803 54.396 52.9519 54.4932C55.1236 54.5905 57.2615 53.9301 59 52.6249C60.7381 53.8921 62.8591 54.523 65.0073 54.4118C67.1554 54.3007 69.1999 53.4542 70.798 52.0144C72.3961 50.5746 73.4504 48.6291 73.7842 46.5041C74.118 44.3792 73.7109 42.2041 72.6312 40.3437C74.1703 39.5595 75.4628 38.3653 76.3661 36.8929C77.2693 35.4206 77.7483 33.7273 77.75 31.9999Z" fill="#396041"/>
<path d="M72.125 32C72.125 30.5446 71.7861 29.1091 71.1352 27.8074C70.4844 26.5056 69.5393 25.3733 68.375 24.5C69.3291 23.2262 69.9433 21.7305 70.1596 20.1537C70.3759 18.577 70.1873 16.9711 69.6114 15.4874C69.0356 14.0038 68.0915 12.6911 66.8681 11.6731C65.6448 10.6551 64.1824 9.96535 62.6187 9.66875C62.3038 8.0026 61.5428 6.45306 60.4169 5.18516C59.2909 3.91726 57.8422 2.97846 56.225 2.46875C54.6077 2.97846 53.159 3.91726 52.0331 5.18516C50.9072 6.45306 50.1462 8.0026 49.8312 9.66875C48.2612 9.95495 46.7902 10.6372 45.5576 11.6509C44.325 12.6646 43.3716 13.9762 42.7877 15.4614C42.2037 16.9466 42.0086 18.5563 42.2207 20.138C42.4329 21.7198 43.0453 23.2212 44 24.5C42.7355 25.4541 41.7334 26.7131 41.0873 28.1593C40.4411 29.6056 40.1719 31.192 40.3049 32.7704C40.4378 34.3489 40.9685 35.8679 41.8475 37.1857C42.7265 38.5035 43.925 39.5771 45.3312 40.3063C44.5876 41.5154 44.1318 42.8793 43.9991 44.2927C43.8664 45.706 44.0604 47.1309 44.5659 48.4574C45.0715 49.7838 45.8752 50.9763 46.915 51.9428C47.9547 52.9093 49.2027 53.6238 50.5625 54.0312C51.5681 53.7133 52.5172 53.2387 53.375 52.625C54.224 53.262 55.175 53.7502 56.1875 54.0688C57.2 53.7502 58.151 53.262 59 52.625C59.8438 53.2484 60.7802 53.7356 61.775 54.0688C63.1348 53.6613 64.3828 52.9468 65.4225 51.9803C66.4623 51.0138 67.2659 49.8213 67.7715 48.4949C68.2771 47.1684 68.471 45.7435 68.3383 44.3302C68.2056 42.9168 67.7499 41.5529 67.0062 40.3438C68.5453 39.5595 69.8378 38.3654 70.7411 36.893C71.6443 35.4206 72.1233 33.7273 72.125 32Z" fill="#4C8056"/>
<path d="M115.25 80.7499H2.75V88.2499H115.25V80.7499Z" stroke="black" stroke-width="3.75" stroke-linejoin="round"/>
<path d="M44.9375 12.1999C43.6021 10.8981 41.9132 10.0178 40.0812 9.66869C39.6696 7.52878 38.5254 5.59909 36.8453 4.21133C35.1652 2.82358 33.0541 2.06445 30.875 2.06445C28.6958 2.06445 26.5848 2.82358 24.9047 4.21133C23.2245 5.59909 22.0803 7.52878 21.6687 9.66869C20.1019 9.96011 18.6352 10.6461 17.4073 11.662C16.1793 12.6778 15.2305 13.9899 14.6506 15.4744C14.0707 16.9588 13.8788 18.5666 14.0931 20.1458C14.3073 21.7251 14.9206 23.2236 15.875 24.4999C14.6105 25.4541 13.6084 26.713 12.9623 28.1592C12.3161 29.6055 12.0469 31.1919 12.1799 32.7703C12.3128 34.3488 12.8435 35.8678 13.7225 37.1856C14.6015 38.5034 15.8 39.577 17.2062 40.3062C16.0883 42.1705 15.6529 44.3654 15.9747 46.5153C16.2964 48.6652 17.3553 50.6364 18.9701 52.0917C20.5849 53.5471 22.6553 54.396 24.8269 54.4932C26.9986 54.5905 29.1365 53.9301 30.875 52.6249C31.979 53.4561 33.2532 54.033 34.6062 54.3142C35.9593 54.5953 37.3578 54.5739 38.7016 54.2514C40.0454 53.9289 41.3013 53.3133 42.3793 52.4486C43.4574 51.584 44.3309 50.4917 44.9375 49.2499" stroke="black" stroke-width="3.75" stroke-linejoin="round"/>
<path d="M32.75 65.7499V15.1249" stroke="black" stroke-width="3.75" stroke-linejoin="round"/>
<path d="M32.75 28.2499L21.5 16.9999" stroke="black" stroke-width="3.75" stroke-linejoin="round"/>
<path d="M32.75 41.3749L40.4188 33.7062" stroke="black" stroke-width="3.75" stroke-linejoin="round"/>
<path d="M77.75 31.9999C77.75 30.5445 77.4111 29.1091 76.7602 27.8073C76.1094 26.5055 75.1643 25.3732 74 24.4999C74.9541 23.2262 75.5683 21.7304 75.7846 20.1537C76.0009 18.5769 75.8123 16.9711 75.2364 15.4874C74.6606 14.0037 73.7165 12.691 72.4931 11.6731C71.2698 10.6551 69.8074 9.96529 68.2437 9.66869C67.8321 7.52878 66.6879 5.59909 65.0078 4.21133C63.3277 2.82358 61.2166 2.06445 59.0375 2.06445C56.8583 2.06445 54.7473 2.82358 53.0672 4.21133C51.387 5.59909 50.2428 7.52878 49.8312 9.66869C48.2612 9.9549 46.7902 10.6372 45.5576 11.6508C44.325 12.6645 43.3716 13.9761 42.7877 15.4613C42.2037 16.9465 42.0086 18.5562 42.2207 20.138C42.4329 21.7197 43.0453 23.2211 44 24.4999C42.7355 25.454 41.7334 26.713 41.0873 28.1592C40.4411 29.6055 40.1719 31.1919 40.3049 32.7703C40.4378 34.3488 40.9685 35.8678 41.8475 37.1856C42.7265 38.5034 43.925 39.577 45.3312 40.3062C44.2133 42.1705 43.7779 44.3654 44.0997 46.5153C44.4214 48.6652 45.4803 50.6364 47.0951 52.0917C48.7099 53.547 50.7803 54.396 52.9519 54.4932C55.1236 54.5905 57.2615 53.9301 59 52.6249C60.7381 53.8921 62.8591 54.523 65.0073 54.4118C67.1554 54.3007 69.1999 53.4542 70.798 52.0144C72.3961 50.5746 73.4504 48.6291 73.7842 46.5041C74.118 44.3792 73.7109 42.2041 72.6312 40.3437C74.1703 39.5595 75.4628 38.3653 76.3661 36.8929C77.2693 35.4206 77.7483 33.7273 77.75 31.9999Z" stroke="black" stroke-width="3.75" stroke-linejoin="round"/>
<path d="M59 69.4999V15.1249" stroke="black" stroke-width="3.75" stroke-linejoin="round"/>
<path d="M59 28.2499L68.375 18.8749" stroke="black" stroke-width="3.75" stroke-linejoin="round"/>
<path d="M59 41.3749L49.625 31.9999" stroke="black" stroke-width="3.75" stroke-linejoin="round"/>
<path d="M73.0625 49.2124C73.6655 50.4572 74.5365 51.5531 75.6129 52.4216C76.6894 53.2901 77.9447 53.9096 79.2888 54.2358C80.6329 54.562 82.0326 54.5867 83.3874 54.3082C84.7422 54.0297 86.0185 53.4549 87.125 52.6249C88.8631 53.8921 90.9842 54.523 93.1323 54.4118C95.2804 54.3007 97.325 53.4542 98.923 52.0144C100.521 50.5746 101.575 48.6291 101.909 46.5041C102.243 44.3792 101.836 42.2041 100.756 40.3437C102.173 39.6203 103.382 38.5485 104.27 37.229C105.158 35.9096 105.696 34.3859 105.833 32.8013C105.97 31.2167 105.701 29.6233 105.053 28.1711C104.404 26.7188 103.396 25.4555 102.125 24.4999C103.079 23.2262 103.693 21.7304 103.91 20.1537C104.126 18.5769 103.937 16.9711 103.361 15.4874C102.786 14.0037 101.842 12.691 100.618 11.6731C99.3948 10.6551 97.9324 9.96529 96.3688 9.66869C95.9572 7.52878 94.813 5.59909 93.1328 4.21133C91.4527 2.82358 89.3416 2.06445 87.1625 2.06445C84.9834 2.06445 82.8723 2.82358 81.1922 4.21133C79.5121 5.59909 78.3678 7.52878 77.9563 9.66869C76.1243 10.0178 74.4354 10.8981 73.1 12.1999" stroke="black" stroke-width="3.75" stroke-linejoin="round"/>
<path d="M87.125 65.7499V15.1249" stroke="black" stroke-width="3.75" stroke-linejoin="round"/>
<path d="M87.125 28.2499L96.5 18.8749" stroke="black" stroke-width="3.75" stroke-linejoin="round"/>
<path d="M87.125 41.3749L77.75 31.9999" stroke="black" stroke-width="3.75" stroke-linejoin="round"/>
</svg>
